<svg width="68" height="26" viewBox="0 0 68 26" fill="none" xmlns="http://www.w3.org/2000/svg">
    <g filter="url(#filter0_d_5_338)">
        <path d="M28.6765 13.6803C28.6765 16.5106 26.4535 18.5961 23.7255 18.5961C20.9974 18.5961 18.7744 16.5106 18.7744 13.6803C18.7744 10.8301 20.9974 8.7645 23.7255 8.7645C26.4535 8.7645 28.6765 10.8301 28.6765 13.6803ZM26.5092 13.6803C26.5092 11.9117 25.2208 10.7016 23.7255 10.7016C22.2301 10.7016 20.9417 11.9117 20.9417 13.6803C20.9417 15.4312 22.2301 16.6591 23.7255 16.6591C25.2208 16.6591 26.5092 15.429 26.5092 13.6803Z" fill="#EA4335"/>
        <path d="M39.6521 13.6803C39.6521 16.5106 37.4291 18.5961 34.701 18.5961C31.973 18.5961 29.75 16.5106 29.75 13.6803C29.75 10.8323 31.973 8.7645 34.701 8.7645C37.4291 8.7645 39.6521 10.8301 39.6521 13.6803ZM37.4848 13.6803C37.4848 11.9117 36.1964 10.7016 34.701 10.7016C33.2057 10.7016 31.9173 11.9117 31.9173 13.6803C31.9173 15.4312 33.2057 16.6591 34.701 16.6591C36.1964 16.6591 37.4848 15.429 37.4848 13.6803Z" fill="#FBBC05"/>
        <path d="M49.9615 9.06148V17.8869C49.9615 21.5173 47.812 23 45.2708 23C42.8787 23 41.439 21.4064 40.8961 20.1032L42.783 19.3209C43.1191 20.121 43.9424 21.0651 45.2686 21.0651C46.8952 21.0651 47.9032 20.0656 47.9032 18.1839V17.4769H47.8276C47.3425 18.0731 46.4079 18.5939 45.2285 18.5939C42.7608 18.5939 40.5 16.4529 40.5 13.698C40.5 10.9232 42.7608 8.7645 45.2285 8.7645C46.4057 8.7645 47.3402 9.28533 47.8276 9.8638H47.9032V9.0637H49.9615V9.06148ZM48.0567 13.698C48.0567 11.9671 46.8974 10.7016 45.4221 10.7016C43.9268 10.7016 42.674 11.9671 42.674 13.698C42.674 15.4113 43.9268 16.6591 45.4221 16.6591C46.8974 16.6591 48.0567 15.4113 48.0567 13.698Z" fill="#4285F4"/>
        <path d="M53.9839 3.88858V18.2947H51.87V3.88858H53.9839Z" fill="#34A853"/>
        <path d="M62.8276 15.2983L64.5098 16.4153C63.9668 17.2154 62.6584 18.5939 60.3976 18.5939C57.5939 18.5939 55.5 16.4352 55.5 13.6781C55.5 10.7548 57.6117 8.7623 60.1551 8.7623C62.7163 8.7623 63.9691 10.7925 64.3785 11.8895L64.6033 12.4481L58.0056 15.1697C58.5107 16.156 59.2962 16.6591 60.3976 16.6591C61.5013 16.6591 62.2668 16.1183 62.8276 15.2983ZM57.6495 13.5296L62.0599 11.7056C61.8173 11.0917 61.0875 10.6639 60.2285 10.6639C59.1271 10.6639 57.5939 11.6324 57.6495 13.5296Z" fill="#EA4335"/>
        <path d="M10.7726 12.4015V10.3159H17.8287C17.8977 10.6794 17.9333 11.1094 17.9333 11.5748C17.9333 13.1395 17.5038 15.0744 16.1197 16.453C14.7735 17.8492 13.0534 18.5939 10.7748 18.5939C6.5514 18.5939 3 15.1675 3 10.9609C3 6.7543 6.5514 3.32785 10.7748 3.32785C13.1113 3.32785 14.7757 4.24098 16.0263 5.43115L14.5487 6.90279C13.652 6.06502 12.437 5.41342 10.7726 5.41342C7.68848 5.41342 5.27637 7.88906 5.27637 10.9609C5.27637 14.0327 7.68848 16.5084 10.7726 16.5084C12.773 16.5084 13.9123 15.7083 14.6422 14.9813C15.2341 14.3918 15.6235 13.5496 15.777 12.3993L10.7726 12.4015Z" fill="#4285F4"/>
    </g>
    <defs>
        <filter id="filter0_d_5_338" x="0" y="0.32785" width="67.6033" height="25.6721" filterUnits="userSpaceOnUse" color-interpolation-filters="sRGB">
            <feFlood flood-opacity="0" result="BackgroundImageFix"/>
            <feColorMatrix in="SourceAlpha" type="matrix" values="0 0 0 0 0 0 0 0 0 0 0 0 0 0 0 0 0 0 127 0" result="hardAlpha"/>
            <feOffset/>
            <feGaussianBlur stdDeviation="1.5"/>
            <feColorMatrix type="matrix" values="0 0 0 0 1 0 0 0 0 1 0 0 0 0 1 0 0 0 1 0"/>
            <feBlend mode="normal" in2="BackgroundImageFix" result="effect1_dropShadow_5_338"/>
            <feBlend mode="normal" in="SourceGraphic" in2="effect1_dropShadow_5_338" result="shape"/>
        </filter>
    </defs>
</svg>
