<svg width="817" height="817" viewBox="0 0 817 817" fill="none" xmlns="http://www.w3.org/2000/svg">
    <mask id="mask0_101_363" style="mask-type:luminance" maskUnits="userSpaceOnUse" x="291" y="172" width="385" height="627">
        <path d="M291.889 172.629H675.159V798.507H291.889V172.629Z" fill="white"/>
    </mask>
    <g mask="url(#mask0_101_363)">
        <path d="M632.216 443.85H632.405C632.405 443.85 560.673 549.067 500.358 627.268C448.222 694.811 432.999 752.653 428.623 780.622C426.911 790.896 418.54 798.507 408.455 798.507C398.37 798.507 389.999 790.896 388.287 780.622C383.909 752.653 368.689 694.811 316.553 627.268C308.561 616.802 300.38 605.957 292.198 594.921L489.13 360.893L647.628 172.908C665.133 209.63 674.837 250.728 674.837 294.3C674.837 349.476 659.044 400.659 632.216 443.85Z" fill="#48B564"/>
    </g>
    <path d="M489.132 360.892L292.2 594.921C238.542 522.999 184.505 443.85 184.505 443.85H184.696C178.987 434.715 173.849 425.394 169.474 415.689L327.782 227.705C312.749 245.782 303.806 268.994 303.806 294.299C303.806 352.141 350.613 398.946 408.457 398.946C440.992 398.946 470.106 384.104 489.132 360.892Z" fill="#FCC60E"/>
    <mask id="mask1_101_363" style="mask-type:luminance" maskUnits="userSpaceOnUse" x="204" y="18" width="289" height="209">
        <path d="M204.214 18.4116H492.291V226.541H204.214V18.4116Z" fill="white"/>
    </mask>
    <g mask="url(#mask1_101_363)">
        <path d="M492.175 32.4917L329.113 226.184L204.294 117.351C253.003 56.8463 326.448 18.4116 408.456 18.4116C437.759 18.4116 465.919 23.3595 492.175 32.4917Z" fill="#2C85EB"/>
    </g>
    <mask id="mask2_101_363" style="mask-type:luminance" maskUnits="userSpaceOnUse" x="141" y="117" width="189" height="300">
        <path d="M141.753 117.083H329.463V416.051H141.753V117.083Z" fill="white"/>
    </mask>
    <g mask="url(#mask2_101_363)">
        <path d="M329.113 226.184L327.781 227.705L169.473 415.689C151.968 378.967 142.074 337.869 142.074 294.299C142.074 226.945 165.478 165.107 204.293 117.351L329.113 226.184Z" fill="#ED5748"/>
    </g>
    <path d="M489.131 360.893C504.162 342.818 513.105 319.605 513.105 294.3C513.105 236.458 466.3 189.653 408.456 189.653C375.92 189.653 346.807 204.493 327.781 227.705L492.175 32.4917C560.485 55.704 616.424 106.885 647.629 172.908L489.131 360.893Z" fill="#5695F6"/>
</svg>

