<svg width="817" height="817" viewBox="0 0 817 817" fill="none" xmlns="http://www.w3.org/2000/svg">
    <path fill-rule="evenodd" clip-rule="evenodd" d="M11.7695 524.197V308.467C11.7695 307.722 11.8057 306.982 11.8801 306.242C11.9525 305.501 12.061 304.765 12.2056 304.036C12.3503 303.306 12.5311 302.585 12.7481 301.874C12.9629 301.162 13.2139 300.462 13.4968 299.775C13.7819 299.088 14.0988 298.416 14.4498 297.76C14.8008 297.105 15.1816 296.467 15.5943 295.848C16.0091 295.231 16.4516 294.633 16.9217 294.059C17.3939 293.483 17.8917 292.934 18.4192 292.406C18.9447 291.881 19.4935 291.383 20.0678 290.911C20.6443 290.439 21.2399 289.996 21.859 289.583C22.4758 289.169 23.114 288.788 23.7692 288.437C24.4244 288.086 25.0966 287.769 25.7816 287.484C26.4686 287.199 27.1685 286.948 27.879 286.733C28.5916 286.516 29.3106 286.337 30.0403 286.19C30.7699 286.046 31.5038 285.937 32.2441 285.865C32.9843 285.791 33.7246 285.754 34.4691 285.754H250.074L11.7695 524.197Z" fill="#1EA361"/>
    <path fill-rule="evenodd" clip-rule="evenodd" d="M11.7695 528.717V524.189L250.074 285.748H254.599C255.341 285.748 256.083 285.784 256.824 285.857C257.564 285.929 258.298 286.039 259.027 286.184C259.755 286.329 260.476 286.51 261.187 286.724C261.899 286.941 262.599 287.192 263.284 287.475C263.971 287.76 264.643 288.079 265.298 288.428C265.954 288.779 266.592 289.162 267.209 289.575C267.828 289.988 268.423 290.43 268.998 290.902C269.574 291.375 270.123 291.874 270.648 292.4C271.174 292.925 271.674 293.476 272.146 294.051C272.616 294.627 273.059 295.223 273.471 295.842C273.886 296.461 274.267 297.097 274.618 297.754C274.967 298.409 275.286 299.081 275.569 299.769C275.854 300.456 276.105 301.156 276.32 301.866C276.537 302.579 276.715 303.3 276.862 304.029C277.007 304.759 277.115 305.493 277.188 306.233C277.262 306.973 277.298 307.716 277.298 308.46V312.928L38.9937 551.37H34.5436C33.7991 551.37 33.0588 551.334 32.3185 551.26C31.5782 551.187 30.8443 551.079 30.1147 550.934C29.3851 550.787 28.6661 550.609 27.9535 550.392C27.243 550.177 26.5431 549.926 25.856 549.641C25.171 549.356 24.4988 549.039 23.8437 548.688C23.1885 548.337 22.5503 547.956 21.9334 547.541C21.3144 547.129 20.7188 546.686 20.1423 546.214C19.5679 545.742 19.0191 545.244 18.4937 544.718C17.9661 544.191 17.4684 543.642 16.9961 543.066C16.526 542.491 16.0835 541.893 15.6687 541.277C15.2561 540.658 14.8753 540.019 14.5243 539.364C14.1733 538.709 13.8563 538.037 13.5713 537.35C13.2884 536.663 13.0374 535.963 12.8225 535.25C12.6055 534.54 12.4247 533.819 12.2801 533.089C12.1354 532.359 12.0269 531.623 11.9546 530.883C11.8801 530.143 11.844 529.402 11.844 528.658" fill="#FEDB43"/>
    <path fill-rule="evenodd" clip-rule="evenodd" d="M39.083 551.444L144.615 445.851L250.148 551.444H39.083Z" fill="#5384C4"/>
    <path fill-rule="evenodd" clip-rule="evenodd" d="M250.149 551.445L144.615 445.762L171.854 418.506L277.462 524.174V528.702C277.462 541.242 267.288 551.415 254.748 551.415H250.223L250.149 551.445Z" fill="white"/>
    <path fill-rule="evenodd" clip-rule="evenodd" d="M277.463 524.197L171.78 418.604L277.314 313.01L277.463 524.197Z" fill="#C2C2C1"/>
    <path d="M59.2159 315.116C72.7238 308.937 89.6331 311.453 100.595 321.581L90.1756 331.909C79.2055 321.007 58.582 326.176 53.4405 340.598C46.7121 354.785 57.8907 373.364 73.7066 373.64C84.1257 374.847 94.3811 367.905 96.553 357.593C89.3353 357.608 82.1155 357.54 74.9702 357.644L74.8361 344.264L111.178 344.755C112.086 353.587 111.461 362.968 106.713 370.722C99.2694 384.594 81.6837 390.648 66.8059 387.148C48.4096 383.336 34.6401 364.451 37.1566 345.744C38.4436 332.549 47.3524 320.59 59.35 315.125" fill="#EFEFEF"/>
    <mask id="mask0_101_1283" style="mask-type:luminance" maskUnits="userSpaceOnUse" x="161" y="248" width="149" height="235">
        <path d="M161.193 248.424H309.861V482.489H161.193V248.424Z" fill="white"/>
    </mask>
    <g mask="url(#mask0_101_1283)">
        <path d="M231.021 248.334H239.656C261.239 249.57 282.202 260.085 295.249 277.377C303.794 288.309 308.557 301.951 309.629 315.653V320.769C309.129 347.474 292.049 369.395 277.255 390.171C260.658 413.643 245.312 439.223 241.053 468.153C239.915 473.054 241.277 479.919 235.429 482.131C234.051 481.059 232.451 480.172 231.483 478.668C229.749 462.495 225.708 446.522 218.818 431.754C211.002 414.626 200.1 398.989 189.032 383.775C182.297 374.645 175.935 365.204 170.681 355.136C162.493 340.048 159.345 322.221 162.716 305.287C165.486 291.921 172.391 279.537 182.155 269.96C195.195 257.205 212.819 249.481 231.021 248.343M229.341 295.382C219.145 297.663 210.57 306.701 209.707 317.276C208.635 327.12 214.395 337.108 223.208 341.456C232.764 346.519 245.312 344.955 253.298 337.733C260.754 331.135 263.464 319.741 259.571 310.522C254.957 298.979 241.292 292.413 229.332 295.48" fill="#DC4B3E"/>
    </g>
    <path d="M229.332 295.375C241.285 292.397 254.963 298.875 259.571 310.417C263.463 319.636 260.747 331.03 253.297 337.629C245.312 344.94 232.757 346.563 223.208 341.351C214.388 337.003 208.634 327.016 209.706 317.171C210.57 306.597 219.136 297.564 229.341 295.278" fill="#802C27"/>
    <mask id="mask1_101_1283" style="mask-type:luminance" maskUnits="userSpaceOnUse" x="369" y="290" width="437" height="279">
        <path d="M369.762 290.255H805.417V568.63H369.762V290.255Z" fill="white"/>
    </mask>
    <g mask="url(#mask1_101_1283)">
        <path d="M369.872 539.812V444.017H382.174L415.471 502.356H415.888L449.281 444.017H461.583V539.812H449.281V482.941L449.773 466.887H449.281L419.334 519.417H412.055L382.099 466.887H381.578L382.07 482.941V539.804L369.872 539.812ZM497.448 541.957C490.49 541.957 484.678 539.991 479.996 535.924C475.314 531.859 472.979 526.617 472.979 520.012C472.979 512.878 475.746 507.351 481.313 503.22C486.88 499.087 493.668 497.128 501.779 497.128C508.999 497.128 514.93 498.468 519.567 501.148V499.287C519.567 494.469 517.914 490.612 514.619 487.708C511.322 484.805 507.25 483.367 502.449 483.367C498.878 483.367 495.648 484.207 492.753 485.898C489.858 487.589 487.869 489.918 486.799 492.86L475.516 488.051C477.027 484.126 480.011 480.493 484.476 477.149C488.941 473.805 494.806 472.128 502.115 472.128C510.488 472.128 517.446 474.588 522.968 479.501C528.491 484.415 531.303 491.327 531.303 500.24V539.842H519.561V530.712H519.069C514.157 538.204 506.997 542.001 497.546 542.001L497.448 541.957ZM499.458 530.668C504.54 530.668 509.156 528.776 513.3 524.986C517.446 521.195 519.522 516.719 519.522 511.544C516.046 508.685 510.83 507.262 503.894 507.262C497.918 507.262 493.415 508.551 490.386 511.186C487.357 513.824 485.846 516.809 485.846 520.287C485.846 523.488 487.231 526.043 489.992 527.913C492.753 529.78 495.914 530.721 499.488 530.721L499.458 530.668ZM579.276 541.957C574.29 541.957 569.81 540.885 565.836 538.755C561.863 536.626 558.914 533.937 556.942 530.712H556.451L556.942 539.812V568.704H544.641V474.26H556.415V483.358H556.906C558.87 480.142 561.833 477.476 565.798 475.332C569.765 473.188 574.239 472.128 579.24 472.128C587.708 472.128 595.017 475.481 601.172 482.167C607.328 488.855 610.402 497.136 610.402 507.062C610.402 516.987 607.328 525.254 601.172 531.957C595.017 538.657 587.702 541.986 579.24 541.986L579.276 541.957ZM577.313 530.668C583.014 530.668 587.91 528.434 592.027 524.173C596.141 519.914 598.181 514.122 598.181 506.987C598.181 499.853 596.126 494.126 592.027 489.859C587.925 485.594 583.094 483.381 577.313 483.381C575.923 483.362 574.549 483.488 573.188 483.76C571.826 484.035 570.51 484.447 569.235 485C567.961 485.553 566.762 486.234 565.632 487.045C564.502 487.853 563.473 488.772 562.539 489.799C558.482 494.081 556.451 499.838 556.451 507.062C556.451 514.286 558.482 520.042 562.539 524.316C563.469 525.339 564.498 526.254 565.621 527.06C566.747 527.864 567.944 528.542 569.214 529.091C570.482 529.642 571.795 530.053 573.152 530.323C574.507 530.593 575.877 530.719 577.259 530.697L577.313 530.668ZM645.379 541.957C638.013 541.957 632.021 540.17 627.258 536.558C622.495 532.946 618.983 528.53 616.764 523.175L627.734 518.634C631.172 526.826 637.141 530.944 645.522 530.944C649.347 530.944 652.487 530.093 654.943 528.396C657.398 526.698 658.619 524.473 658.619 521.695C658.619 517.413 655.643 514.516 649.659 513.003L636.411 509.802C634.233 509.225 632.14 508.423 630.134 507.398C628.128 506.37 626.254 505.141 624.511 503.711C620.767 500.716 618.9 496.689 618.9 491.603C618.9 485.809 621.461 481.103 626.588 477.483C631.716 473.864 637.796 472.069 644.843 472.069C650.634 472.069 655.814 473.388 660.362 476.017C664.91 478.644 668.213 482.42 670.185 487.321L659.491 491.737C657.035 485.943 652.093 483.045 644.516 483.045C640.87 483.045 637.781 483.805 635.288 485.317C632.795 486.83 631.538 488.891 631.538 491.469C631.538 495.213 634.484 497.753 640.223 499.093L653.195 502.169C659.343 503.643 663.888 506.094 666.837 509.542C667.547 510.348 668.179 511.212 668.732 512.133C669.285 513.054 669.751 514.018 670.128 515.024C670.504 516.032 670.787 517.064 670.976 518.121C671.164 519.181 671.255 520.246 671.249 521.323C671.249 527.204 668.794 532.12 664.031 536.037C659.268 539.953 653.016 541.921 645.448 541.921L645.379 541.957ZM476.857 341.06H426.069V356.133H462.089C460.305 377.282 442.725 386.291 426.144 386.291C425.488 386.295 424.833 386.28 424.18 386.25C423.525 386.221 422.872 386.176 422.219 386.114C421.568 386.05 420.917 385.972 420.268 385.878C419.619 385.784 418.975 385.674 418.332 385.546C417.688 385.421 417.05 385.278 416.414 385.119C415.778 384.961 415.146 384.787 414.52 384.597C413.893 384.408 413.27 384.202 412.653 383.983C412.036 383.761 411.425 383.525 410.819 383.274C410.215 383.023 409.617 382.757 409.024 382.477C408.432 382.196 407.847 381.902 407.271 381.592C406.692 381.281 406.122 380.958 405.563 380.62C405.001 380.281 404.448 379.93 403.903 379.564C403.361 379.199 402.825 378.82 402.299 378.429C401.776 378.037 401.259 377.631 400.755 377.214C400.251 376.797 399.755 376.367 399.272 375.925C398.787 375.482 398.315 375.029 397.856 374.563C397.394 374.097 396.945 373.621 396.507 373.134C396.069 372.645 395.643 372.147 395.231 371.638C394.818 371.128 394.418 370.609 394.031 370.081C393.644 369.552 393.272 369.013 392.91 368.467C392.55 367.918 392.204 367.363 391.87 366.797C391.538 366.233 391.219 365.661 390.915 365.08C390.61 364.499 390.321 363.912 390.047 363.317C389.77 362.721 389.511 362.121 389.264 361.513C389.019 360.904 388.789 360.292 388.575 359.673C388.36 359.054 388.16 358.428 387.977 357.799C387.792 357.171 387.624 356.537 387.471 355.899C387.32 355.263 387.181 354.621 387.062 353.976C386.941 353.332 386.837 352.685 386.747 352.036C386.658 351.387 386.586 350.736 386.53 350.083C386.473 349.43 386.433 348.775 386.409 348.12C386.386 347.465 386.377 346.809 386.386 346.154C386.386 323.338 404.048 305.756 426.188 305.756C443.261 305.756 453.338 316.658 453.338 316.658L463.883 305.726C463.883 305.726 450.339 290.646 425.646 290.646C394.201 290.646 369.872 317.254 369.872 345.886C369.872 373.989 392.757 401.4 426.448 401.4C456.084 401.4 477.822 381.085 477.822 351.047C477.822 344.665 476.908 341.053 476.908 341.053L476.857 341.06ZM518.444 330.145C497.605 330.145 482.623 346.452 482.623 365.457C482.623 384.742 497.106 401.296 518.644 401.296C538.144 401.296 554.1 386.389 554.1 365.82C554.1 342.238 535.523 330.1 518.399 330.1L518.444 330.145ZM518.652 344.129C528.899 344.129 538.597 352.417 538.597 365.769C538.597 378.845 528.922 387.365 518.593 387.365C507.235 387.365 498.276 378.265 498.276 365.665C498.276 353.334 507.131 344.129 518.637 344.129H518.652ZM596.238 330.145C575.4 330.145 560.418 346.452 560.418 365.457C560.418 384.742 574.9 401.296 596.438 401.296C615.939 401.296 631.895 386.389 631.895 365.82C631.895 342.238 613.326 330.1 596.194 330.1L596.238 330.145ZM596.447 344.129C606.694 344.129 616.392 352.417 616.392 365.769C616.392 378.845 606.717 387.365 596.394 387.365C585.037 387.365 576.077 378.265 576.077 365.665C576.077 353.334 584.932 344.129 596.438 344.129H596.447ZM672.538 330.189C653.41 330.189 638.377 346.943 638.377 365.761C638.377 387.193 655.807 401.409 672.202 401.409C682.346 401.409 687.735 397.386 691.717 392.755V399.777C691.717 412.064 684.259 419.414 673.014 419.414C662.148 419.414 656.692 411.328 654.801 406.74L641.129 412.46C645.969 422.773 655.754 433.421 673.133 433.421C692.149 433.421 706.646 421.432 706.646 396.308V332.34H691.732V338.298C687.145 333.353 680.866 330.13 672.604 330.13L672.538 330.189ZM673.929 344.144C683.255 344.144 692.929 352.155 692.929 365.835C692.929 379.745 683.329 387.41 673.712 387.41C663.516 387.41 654.088 379.128 654.088 365.963C654.088 352.298 663.942 344.144 673.98 344.144H673.929ZM772.97 330.1C754.931 330.1 739.779 344.457 739.779 365.657C739.779 388.071 756.657 401.379 774.698 401.379C789.761 401.379 798.991 393.143 804.504 385.755L792.209 377.565C789.01 382.479 783.681 387.365 774.781 387.365C764.776 387.365 760.192 381.883 757.335 376.582L804.966 356.773L802.488 350.964C797.874 339.6 787.127 330.1 772.896 330.1H772.97ZM773.596 343.846C780.101 343.846 784.774 347.301 786.77 351.44L754.917 364.772C753.54 354.457 763.251 343.921 773.56 343.921L773.596 343.846ZM717.035 399.265H732.708V294.339H717.035V399.265Z" fill="#63666A"/>
    </g>
</svg>
